<svg width="105" height="70" viewBox="0 0 105 70" fill="none" xmlns="http://www.w3.org/2000/svg">
<path fill-rule="evenodd" clip-rule="evenodd" d="M81.5205 69.4558L52.7761 40.531L23.8512 69.2754L0.783463 69.2032L0.92331 24.5095C0.950377 15.8591 5.90189 0.0153587 25.5095 0.076711C32.7181 0.099267 39.9268 0.121824 52.8437 18.9049C65.8779 0.203005 73.0866 0.22556 80.2953 0.248116C99.9028 0.309468 104.755 16.1839 104.728 24.8343L104.588 69.528L81.5205 69.4558ZM87.3416 52.1731L64.3461 29.0332C67.2431 24.717 74.4788 16.0892 78.804 16.1027C85.7243 16.1244 87.4364 21.8967 87.4273 24.7802L87.3416 52.1731ZM18.1384 51.9566L41.2783 28.961C38.4083 24.6268 31.2267 15.9538 26.9015 15.9403C19.9812 15.9187 18.2331 21.6802 18.2241 24.5636L18.1384 51.9566Z" fill="white"/>
</svg>
